<?xml version="1.0" standalone="no"?><!DOCTYPE svg PUBLIC "-//W3C//DTD SVG 1.1//EN" "http://www.w3.org/Graphics/SVG/1.1/DTD/svg11.dtd"><svg width="100%" height="100%" viewBox="0 0 490 490" version="1.1" xmlns="http://www.w3.org/2000/svg" xmlns:xlink="http://www.w3.org/1999/xlink" xml:space="preserve" style="fill-rule:evenodd;clip-rule:evenodd;stroke-linejoin:round;stroke-miterlimit:1.41421;"><g><path d="M439.305,163.153c-9.006,-16.559 -19.943,-31.656 -32.445,-45.082l23.233,-28.824c3.466,-4.299 2.789,-10.595 -1.511,-14.061c-4.3,-3.465 -10.597,-2.791 -14.062,1.51l-22.012,27.309c-27.63,-24.727 -61.168,-42.214 -97.561,-50.649l0,-43.356c0,-5.523 -4.477,-10 -10,-10l-75.117,0c-5.522,0 -10,4.477 -10,10l0,42.342c-21.031,4.412 -41.455,11.863 -60.46,22.2c-15.226,8.281 -29.228,18.168 -41.851,29.42l-21.975,-27.266c-3.465,-4.299 -9.762,-4.975 -14.062,-1.51c-4.3,3.466 -4.977,9.762 -1.511,14.061l23.173,28.751c-23.109,24.758 -40.322,54.73 -50.197,88.157c-16.737,56.65 -10.411,116.427 17.811,168.318c38.758,71.26 113.272,115.527 194.462,115.527c36.627,0 73.1,-9.308 105.474,-26.915c34.748,-18.898 63.797,-46.73 84.007,-80.486c19.614,-32.762 30.488,-70.252 31.449,-108.418c0.97,-38.561 -8.313,-76.954 -26.845,-111.028ZM219.83,20l55.118,0l0,29.672c-9.892,-1.353 -19.945,-2.046 -30.103,-2.046c-8.362,0 -16.715,0.51 -25.015,1.469l0,-29.095l0,0ZM446.156,273.678c-1.805,71.745 -42.045,137.589 -105.017,171.838c-29.451,16.018 -62.62,24.484 -95.919,24.484c-73.857,0 -141.639,-40.265 -176.892,-105.081c-52.992,-97.436 -16.834,-219.817 80.599,-272.809c29.45,-16.018 62.619,-24.484 95.918,-24.484c73.857,0 141.638,40.266 176.89,105.082c16.858,30.996 25.303,65.911 24.421,100.97Z" style="fill:#1e6f7c;fill-rule:nonzero;"/><path d="M249.892,116.554c0.109,0.003 0.217,0.004 0.325,0.004c5.375,0 9.816,-4.27 9.989,-9.681l0.174,-5.446c0.176,-5.521 -4.156,-10.139 -9.676,-10.314c-5.5,-0.176 -10.139,4.156 -10.314,9.676l-0.174,5.447c-0.176,5.519 4.156,10.137 9.676,10.314Z" style="fill:#1e6f7c;fill-rule:nonzero;"/><path d="M159.576,130.427c1.803,3.366 5.255,5.281 8.824,5.281c1.593,0 3.209,-0.382 4.712,-1.186c4.868,-2.607 6.702,-8.667 4.095,-13.536l-2.572,-4.804c-2.607,-4.868 -8.666,-6.702 -13.536,-4.095c-4.868,2.607 -6.702,8.667 -4.095,13.536l2.572,4.804Z" style="fill:#1e6f7c;fill-rule:nonzero;"/><path d="M112.379,174.702l-4.63,-2.873c-4.69,-2.912 -10.857,-1.469 -13.77,3.223c-2.913,4.693 -1.47,10.857 3.223,13.77l4.63,2.874c1.642,1.018 3.464,1.504 5.264,1.504c3.345,0 6.613,-1.678 8.506,-4.727c2.913,-4.693 1.47,-10.858 -3.223,-13.771Z" style="fill:#1e6f7c;fill-rule:nonzero;"/><path d="M92.774,263.95c0.176,-5.521 -4.157,-10.138 -9.677,-10.313l-5.446,-0.173c-5.529,-0.172 -10.137,4.157 -10.313,9.677c-0.176,5.521 4.157,10.138 9.677,10.314l5.446,0.173c0.108,0.003 0.217,0.005 0.324,0.005c5.375,-0.001 9.816,-4.272 9.989,-9.683Z" style="fill:#1e6f7c;fill-rule:nonzero;"/><path d="M97.205,336.638l-4.803,2.573c-4.869,2.608 -6.701,8.669 -4.093,13.537c1.803,3.365 5.255,5.28 8.823,5.28c1.594,0 3.21,-0.383 4.713,-1.188l4.803,-2.572c4.869,-2.608 6.701,-8.669 4.093,-13.537c-2.608,-4.869 -8.668,-6.702 -13.536,-4.093Z" style="fill:#1e6f7c;fill-rule:nonzero;"/><path d="M164.693,398.241c-4.694,-2.912 -10.857,-1.468 -13.771,3.225l-2.873,4.629c-2.912,4.692 -1.469,10.857 3.224,13.77c1.643,1.02 3.464,1.505 5.264,1.505c3.345,0 6.613,-1.678 8.507,-4.729l2.873,-4.63c2.912,-4.692 1.468,-10.858 -3.224,-13.77Z" style="fill:#1e6f7c;fill-rule:nonzero;"/><path d="M240.173,421.07c-5.54,-0.163 -10.138,4.156 -10.314,9.677l-0.174,5.445c-0.176,5.52 4.156,10.139 9.676,10.314c0.109,0.004 0.217,0.005 0.325,0.005c5.375,0 9.816,-4.27 9.989,-9.681l0.174,-5.447c0.176,-5.519 -4.156,-10.136 -9.676,-10.313Z" style="fill:#1e6f7c;fill-rule:nonzero;"/><path d="M330.489,407.195c-2.607,-4.868 -8.668,-6.704 -13.537,-4.093c-4.868,2.607 -6.701,8.668 -4.094,13.536l2.573,4.804c1.803,3.366 5.256,5.281 8.824,5.281c1.593,0 3.21,-0.383 4.713,-1.188c4.868,-2.607 6.701,-8.668 4.094,-13.537l-2.573,-4.803Z" style="fill:#1e6f7c;fill-rule:nonzero;"/><path d="M392.862,348.802l-4.629,-2.873c-4.691,-2.912 -10.858,-1.47 -13.77,3.223c-2.913,4.692 -1.47,10.857 3.223,13.77l4.629,2.873c1.642,1.02 3.464,1.506 5.264,1.506c3.345,0 6.613,-1.678 8.506,-4.729c2.912,-4.693 1.469,-10.858 -3.223,-13.77Z" style="fill:#1e6f7c;fill-rule:nonzero;"/><path d="M413.051,264.17l-5.447,-0.173c-5.54,-0.164 -10.137,4.157 -10.314,9.677c-0.176,5.521 4.157,10.138 9.677,10.314l5.447,0.173c0.108,0.003 0.217,0.005 0.324,0.005c5.375,0 9.816,-4.271 9.989,-9.682c0.177,-5.521 -4.156,-10.138 -9.676,-10.314Z" style="fill:#1e6f7c;fill-rule:nonzero;"/><path d="M388.148,202.173c1.594,0 3.21,-0.382 4.713,-1.188l4.803,-2.572c4.869,-2.607 6.701,-8.668 4.093,-13.537c-2.607,-4.868 -8.669,-6.701 -13.536,-4.093l-4.803,2.573c-4.869,2.607 -6.701,8.668 -4.093,13.537c1.802,3.366 5.255,5.28 8.823,5.28Z" style="fill:#1e6f7c;fill-rule:nonzero;"/><path d="M260.831,242.577c-4.95,-2.978 -10.609,-4.552 -16.365,-4.552c-7.588,0 -14.868,2.762 -20.542,7.543l-76.998,-48.874c-4.664,-2.959 -10.844,-1.578 -13.802,3.084c-2.96,4.663 -1.579,10.842 3.083,13.803l77.266,49.044c-1.129,4.837 -1.111,9.906 0.123,14.866c2.049,8.24 7.185,15.189 14.461,19.566c4.95,2.979 10.61,4.553 16.366,4.553c11.1,0 21.545,-5.903 27.261,-15.405c9.035,-15.02 4.167,-34.591 -10.853,-43.628ZM254.545,275.896c-2.152,3.578 -5.936,5.715 -10.122,5.715c-2.124,0 -4.219,-0.585 -6.057,-1.69c-2.698,-1.623 -4.603,-4.2 -5.362,-7.256c-0.76,-3.056 -0.284,-6.225 1.34,-8.924c2.152,-3.579 5.937,-5.715 10.122,-5.715c2.123,0 4.217,0.585 6.055,1.69c5.57,3.35 7.376,10.609 4.024,16.18Z" style="fill:#1e6f7c;fill-rule:nonzero;"/><path d="M251.644,238.857l73.376,-117.873c2.913,-4.693 9.079,-6.137 13.77,-3.225c4.693,2.911 6.137,9.076 3.225,13.771l-73.314,117.778c4.781,5.674 -21.894,-11.58 -17.057,-10.451Z" style="fill:#1e6f7c;"/></g></svg>