<?xml version="1.0" encoding="UTF-8" standalone="no"?><!DOCTYPE svg PUBLIC "-//W3C//DTD SVG 1.1//EN" "http://www.w3.org/Graphics/SVG/1.1/DTD/svg11.dtd"><svg width="100%" height="100%" viewBox="0 0 266 174" version="1.1" xmlns="http://www.w3.org/2000/svg" xmlns:xlink="http://www.w3.org/1999/xlink" xml:space="preserve" style="fill-rule:evenodd;clip-rule:evenodd;stroke-linejoin:round;stroke-miterlimit:1.41421;"><path d="M66.739,128.711l18.112,0l-8.072,-8.243l-10.04,8.243Z" style="fill:#5f4545;"/><path d="M100.341,127.317l20.664,0l-7.783,-8.899l-12.881,8.899Z" style="fill:#5f4545;"/><path d="M132.735,132.194l18.112,0l-8.072,-8.243l-10.04,8.243Z" style="fill:#5f4545;"/><path d="M180.723,114.578l16.622,7.195l0,-10.908l-16.622,3.713Z" style="fill:#5f4545;"/><path d="M189.693,46.271l-7.934,6.506l7.934,4.52l0,-11.026Z" style="fill:#2d2d2d;"/><path d="M70.815,94.825l-8.35,27.794l4.077,6.215l11.587,-4.603l16.519,-17.411l-23.833,-11.995Z" style="fill:#4e3030;"/><path d="M91.482,99.043l6.994,15.805l1.697,12.425l14.539,-6.608l3.13,-11.68l0,-13.207l-26.36,3.265Z" style="fill:#3c2525;"/><path d="M120.072,97.808l3.887,19.07l8.791,15.544l11.871,-5.236l-3.479,-13.122l6.974,-14.344l-28.044,-1.912Z" style="fill:#4e3030;"/><path d="M157.177,94.063l21.346,-8.859l7.062,12.157l11.449,13.626l-11.449,5.72l-11.13,-3.197l-17.278,-19.447Z" style="fill:#3c2525;"/><path d="M73.448,62.183l-6.512,24.516l1.816,13.985l23.226,8.663l24.001,-8.663l31.794,0l6.515,-4.12l27.471,-9.865l13.838,-2.661l4.262,-6.182l-4.262,-6.296l-1.179,-11.298l-4.725,-6.12l-4.518,-3.462l-10.095,0l-13.104,-4.409l-11.405,-4.883l-12.236,4.883l-22.356,-1.925l-24.001,1.925l-18.53,15.912Z" style="fill:#5f4545;"/><path d="M199.859,77.856l-7.379,6.182l-10.721,-4.75l-18.57,10.558l-15.416,0l-22.196,-3.147l-33.599,7.522l-22.735,-16.365l-2.307,8.843l1.816,13.985l23.226,8.663l24.001,-8.663l31.794,0l6.515,-4.12l27.471,-9.865l13.838,-2.661l4.262,-6.182Z" style="fill:#533c3c;"/><path d="M192.139,78.778l3.458,-4.241l4.163,3.319l-4.163,6.182" style="fill:#2d2d2d;"/><path d="M171.661,61.357l-2.366,-4.32l0,-3.642l7.678,1.546l-5.312,6.416Z" style="fill:#2d2d2d;"/><path d="M193.208,64.02l0.911,1.981l-0.911,1.009l-1.143,0l-1.224,-2.203l2.367,-0.787Z" style="fill:#2d2d2d;"/><path d="M195.597,74.537l-6.869,-10.353l3.411,-3.047l-14.262,2.883l8.196,4.286l9.524,6.231Z" style="fill:#533c3c;"/><path d="M181.452,66.565l-0.911,1.981l0.911,1.009l2.367,0l0.806,-2.203l-3.173,-0.787Z" style="fill:#2d2d2d;"/></svg>