<?xml version="1.0" encoding="utf-8"?>
<!-- Generator: Adobe Illustrator 19.0.1, SVG Export Plug-In . SVG Version: 6.00 Build 0)  -->
<svg version="1.1" id="Layer_1" xmlns="http://www.w3.org/2000/svg" xmlns:xlink="http://www.w3.org/1999/xlink" x="0px" y="0px"
	 viewBox="0 0 1200 1200" style="enable-background:new 0 0 1200 1200;" xml:space="preserve">
<style type="text/css">
	.st0{fill:#FFFFFF;}
</style>
<g id="KQhOB9.tif">
	<g id="gLg51C_1_">
		<g>
			<g>
				<path class="st0" d="M384,1041.3c-74.1,0-148.2,0-222.3,0c0-341,0-681.9,0-1023c226.9,0,453.8,0,680.9,0c0,340.9,0,682,0,1023
					c-50.6,0-101.4,0-152.3,0c-1.4-3.8-3.3-7.4-4-11.3c-1.7-9.7-6.3-19.1-1.7-29.5c2.2-5.1,3-11.3,2.7-17
					c-1.6-29.7-4.7-59.4-5.3-89.1c-0.4-20.7,2.7-41.5,3.5-62.3c0.7-19.5,0.7-39.1,0.5-58.6c-0.2-19.6-1.5-39.2-1.3-58.9
					c0.1-16.3-4-32.7,1.1-49c1.8-5.8,1.9-12.1,3.1-18.1c2.9-15.2,1-30.6,4.4-46.3c4.1-18.9,13.3-38.5,5.7-59
					c-0.2-0.6-0.1-1.5,0.1-2.1c5.6-14.2,1.6-28.2-1.9-41.8c-2.2-8.4-7.2-16.1-11-24.1c-2-4.2-5.6-8.4-5.8-12.7
					c-1.1-18.2-9.2-32.9-20.8-46.2c-5.5-6.3-9.2-13.4-8.2-22.5c0.5-4.5-0.9-9.3-2.1-13.9c-2.2-8.6-3.9-16.8-3-26.3
					c1-9.6-0.7-21.1-5.6-29.2c-8.8-14.4-16.1-29-22.3-44.7c-8.5-21.7-17.4-43.4-28.4-63.9c-10.9-20.3-25.8-37.9-46.9-49.2
					c-18.6-9.9-38-15.9-59.3-12.1c-6.2,1.1-12.2,3.5-18.2,5.5c-3.3,1.1-6.6,2.2-9.8,3.6c-11.7,4.9-23.4,9.7-35.1,14.7
					c-8.3,3.5-16.8,6.6-24.6,10.9c-6.2,3.5-11.5,8.5-17,13.1c-10,8.2-20,16.5-29.8,24.9c-1.1,0.9-1.3,2.9-1.6,4.5
					c-1.8,8.3-3.9,16.2-16.1,17.5c3.5,2.4,5.8,3.5,7.5,5.3c2.4,2.6,6,5.5,6.2,8.4c1.1,16,1.6,32.2,1.7,48.2c0,4.9,2.2,7.1,5.7,9.5
					c2.3,1.6,4.3,4.2,5.5,6.8c3.2,6.6,0.9,12.9-2.3,18.9c-5.2,9.8-10.7,19.4-15.7,29.3c-3.6,7.1-1.8,11.6,5.4,14.9
					c2.6,1.2,5.3,2,8,2.6c8.9,2.1,11.3,5.2,8.6,13.7c-1.6,5.1,0,7.8,4.3,9.3c4.1,1.5,4.6,3.4,3.1,7.5c-0.8,2.2,0.4,7.4,1.8,7.9
					c9.2,3.2,9.9,9.4,9.3,17.9c-1,13.3,7.2,21.3,20.7,20.8c13-0.5,25.9-2.2,38.9-2.8c8.3-0.4,10,2.2,8,10.4
					c-0.9,3.7-1.5,7.4-2.7,10.9c-4.3,13.1-4.1,26.2-2.5,39.8c1.6,13.6,3.7,27.2-0.3,40.9c-1.3,4.6-3.3,7.9-7.8,9
					c-9.2,2.2-18.5,4-28.8,6.2c7.6,0.5,14.5,0.9,21.4,1.4c-4.2,3.2-8.6,4.9-12.9,6.8c-4.2,1.8-9.9,1.7-10.7,5.7
					c8,9.6,17.5,10.8,28.8,7.7c-1.2,3.4-1.6,5.2-2.5,6.9c-5.3,10.5-10.7,20.9-16,31.3c-4.6,9-8.6,18.5-14.2,26.9
					c-11.9,18.2-18.7,38.5-24.2,59.2c-1.9,7.1-1.7,15-1,22.5c1.4,15.2,5.1,30.3,5.7,45.6c1.3,31,1.3,62,1.6,93.1
					c0.3,28.3,0.1,56.6,0.3,85C383.1,997.8,383.6,1019.5,384,1041.3z"/>
				<path d="M384,1041.3c-0.4-21.8-0.9-43.6-1-65.4c-0.2-28.3,0-56.6-0.3-85c-0.3-31-0.3-62.1-1.6-93.1c-0.6-15.2-4.2-30.3-5.7-45.6
					c-0.7-7.4-0.9-15.4,1-22.5c5.5-20.7,12.3-41,24.2-59.2c5.5-8.5,9.5-17.9,14.2-26.9c5.4-10.4,10.7-20.9,16-31.3
					c0.8-1.6,1.2-3.4,2.5-6.9c-11.3,3.1-20.7,2-28.8-7.7c0.8-4,6.5-3.9,10.7-5.7c4.3-1.9,8.7-3.6,12.9-6.8
					c-6.9-0.5-13.8-0.9-21.4-1.4c10.3-2.2,19.6-4.1,28.8-6.2c4.5-1.1,6.5-4.3,7.8-9c3.9-13.7,1.8-27.4,0.3-40.9
					c-1.6-13.5-1.8-26.7,2.5-39.8c1.2-3.6,1.9-7.3,2.7-10.9c1.9-8.2,0.3-10.7-8-10.4c-13,0.6-25.9,2.2-38.9,2.8
					c-13.5,0.6-21.8-7.5-20.7-20.8c0.7-8.5-0.1-14.7-9.3-17.9c-1.4-0.5-2.6-5.7-1.8-7.9c1.5-4.1,1-6-3.1-7.5c-4.4-1.6-6-4.2-4.3-9.3
					c2.7-8.5,0.3-11.7-8.6-13.7c-2.7-0.6-5.5-1.5-8-2.6c-7.3-3.3-9-7.7-5.4-14.9c5-9.9,10.5-19.5,15.7-29.3c3.2-6,5.5-12.3,2.3-18.9
					c-1.2-2.6-3.2-5.2-5.5-6.8c-3.5-2.5-5.7-4.6-5.7-9.5c-0.1-16.1-0.6-32.2-1.7-48.2c-0.2-3-3.8-5.9-6.2-8.4
					c-1.6-1.8-4-2.9-7.5-5.3c12.1-1.3,14.3-9.2,16.1-17.5c0.3-1.6,0.5-3.6,1.6-4.5c9.8-8.4,19.8-16.7,29.8-24.9
					c5.5-4.5,10.8-9.6,17-13.1c7.8-4.4,16.3-7.4,24.6-10.9c11.7-5,23.4-9.9,35.1-14.7c3.2-1.3,6.5-2.5,9.8-3.6
					c6-1.9,12-4.4,18.2-5.5c21.3-3.8,40.7,2.2,59.3,12.1c21.1,11.2,36,28.9,46.9,49.2c11,20.5,19.9,42.2,28.4,63.9
					c6.1,15.6,13.5,30.3,22.3,44.7c4.9,8,6.5,19.6,5.6,29.2c-1,9.5,0.8,17.6,3,26.3c1.2,4.5,2.6,9.4,2.1,13.9
					c-1,9.1,2.7,16.2,8.2,22.5c11.6,13.4,19.8,28,20.8,46.2c0.3,4.3,3.8,8.5,5.8,12.7c3.8,8,8.9,15.7,11,24.1
					c3.5,13.6,7.5,27.6,1.9,41.8c-0.2,0.6-0.3,1.5-0.1,2.1c7.6,20.5-1.6,40-5.7,59c-3.4,15.7-1.6,31-4.4,46.3
					c-1.1,6-1.3,12.3-3.1,18.1c-5.1,16.3-1,32.7-1.1,49c-0.1,19.6,1.2,39.2,1.3,58.9c0.2,19.5,0.2,39.1-0.5,58.6
					c-0.8,20.8-3.9,41.5-3.5,62.3c0.6,29.7,3.7,59.4,5.3,89.1c0.3,5.6-0.4,11.9-2.7,17c-4.6,10.4,0,19.8,1.7,29.5
					c0.7,3.9,2.6,7.5,4,11.3C588.2,1041.3,486.1,1041.3,384,1041.3z"/>
			</g>
		</g>
	</g>
</g>
</svg>
