<?xml version="1.0" encoding="utf-8"?>
<!-- Generator: Adobe Illustrator 19.0.1, SVG Export Plug-In . SVG Version: 6.00 Build 0)  -->
<svg version="1.1" id="Layer_1" xmlns="http://www.w3.org/2000/svg" xmlns:xlink="http://www.w3.org/1999/xlink" x="0px" y="0px"
	 viewBox="0 0 1200 1200" style="enable-background:new 0 0 1200 1200;" xml:space="preserve">
<style type="text/css">
	.st0{fill:#FFFFFF;}
</style>
<g>
	<path d="M432,484c-30,0-60,0-90,0c-1.7-0.3-3.3-1-5-1c-17.3-0.1-34.7,0.2-52-0.1c-12.1-0.2-22.2-8.6-22.1-22.1
		c0.2-56.5,0.3-113,0-169.4c-0.1-14.3,9.7-23.1,22.8-23.1c57-0.3,114-0.3,170.9,0c12.8,0.1,21.3,9,21.3,21
		c0.1,57.6,0.1,115.3,0,172.9c0,9.4-5.6,17.9-14.8,19.7c-8.3,1.6-17.1,0.9-25.7,1.3C435.7,483.1,433.8,483.7,432,484z M379.5,455.4
		c2.6,1.7,4.7,3.3,7.1,4.4c10.7,5.1,21.9,6.8,33.8,5.3c8.4-1.1,15.8-3.8,22.2-9.2c9.5-8,11.9-19.3,12.2-30.6
		c0.7-27.8,0.2-55.7,0.1-83.5c0-1.3-1.1-3.3-2.2-3.7c-14.3-5.4-29.1-7.7-44.2-4c-14.9,3.6-26.1,12.2-32.2,26.9
		c-4.7,11.2-4.1,22.5-2.3,34c4.5,28.9,34.6,38.4,55.1,28.3c5.6-2.7,10.5-6.8,15.8-10.3c0,5,0.5,10.2-0.1,15.3
		c-0.8,6.8-2.3,13.3-7.3,18.7c-10.1,10.9-22.9,9.7-35.5,8.2c-6-0.7-11.7-4.3-17.8-6.7C383,450.4,381.3,452.8,379.5,455.4z
		 M286.3,295.2c0,43.1,0,85.9,0,128.6c3,0,5.6,0,8.7,0c0-2.3,0-4.4,0-6.6c0.3-15.9-0.8-32,1.3-47.7c2.8-21.1,22.6-33.5,43.8-26.2
		c3,1,5.7,3.7,7.8,6.2c5,5.8,5.7,13.2,5.9,20.3c0.3,16.2,0.1,32.3,0.1,48.5c0,1.8,0,3.6,0,5.3c3.2,0.5,5.9,0.9,8.5,1.3
		c0.2-0.6,0.4-0.9,0.4-1.2c0-20,0.4-40-0.1-60c-0.2-7.8-2.9-15.2-8.1-21.6c-7.8-9.7-30.3-12.5-42.2-5.8c-6.4,3.6-11.8,8.7-17.7,13.2
		c0-17.6,0-35.9,0-54.3C291.9,295.2,289.3,295.2,286.3,295.2z"/>
	<path class="st0" d="M432,484c1.8-0.3,3.7-0.9,5.5-1c8.6-0.4,17.4,0.3,25.7-1.3c9.2-1.7,14.7-10.3,14.8-19.7
		c0-57.6,0.1-115.3,0-172.9c0-12-8.5-20.9-21.3-21c-57-0.3-114-0.3-170.9,0c-13.1,0.1-22.9,8.9-22.8,23.1c0.4,56.5,0.3,113,0,169.4
		c-0.1,13.5,10,21.9,22.1,22.1c17.3,0.4,34.7,0.1,52,0.1c1.7,0,3.3,0.6,5,1c-27,0-54,0-81,0c0-72.3,0-144.5,0-216.9
		c72.5,0,145.1,0,217.8,0c0,72.2,0,144.6,0,216.9C463.3,484,447.7,484,432,484z"/>
	<path class="st0" d="M379.5,455.4c1.8-2.6,3.4-5,4.7-6.9c6.1,2.4,11.8,6,17.8,6.7c12.5,1.5,25.4,2.8,35.5-8.2
		c5-5.4,6.5-12,7.3-18.7c0.6-5.1,0.1-10.3,0.1-15.3c-5.3,3.5-10.3,7.5-15.8,10.3c-20.5,10-50.6,0.6-55.1-28.3
		c-1.8-11.4-2.3-22.8,2.3-34c6.1-14.7,17.3-23.3,32.2-26.9c15-3.6,29.8-1.4,44.2,4c1.1,0.4,2.2,2.4,2.2,3.7
		c0.1,27.8,0.5,55.7-0.1,83.5c-0.3,11.3-2.6,22.6-12.2,30.6c-6.4,5.4-13.8,8.2-22.2,9.2c-11.9,1.5-23.1-0.2-33.8-5.3
		C384.3,458.7,382.2,457.1,379.5,455.4z M445,345.4c-4.5-1.1-8.8-2.5-13.2-3.2c-3.4-0.5-7,0.1-10.5-0.2
		c-17.8-1.2-34.8,12.2-37.7,29.1c-0.9,5.5-0.9,11.3-0.4,16.9c1,10.4,4.6,19.8,14.1,25.6c7.5,4.5,15.5,5.2,24.1,3.5
		c11-2.1,23.3-14.8,23.5-25.9C445.2,376,445,360.9,445,345.4z"/>
	<path class="st0" d="M286.3,295.2c2.9,0,5.5,0,8.6,0c0,18.5,0,36.7,0,54.3c5.8-4.4,11.3-9.6,17.7-13.2c11.9-6.7,34.4-3.9,42.2,5.8
		c5.2,6.4,7.9,13.8,8.1,21.6c0.5,20,0.1,40,0.1,60c0,0.3-0.2,0.6-0.4,1.2c-2.6-0.4-5.3-0.8-8.5-1.3c0-1.7,0-3.5,0-5.3
		c0-16.2,0.2-32.3-0.1-48.5c-0.2-7.1-0.9-14.5-5.9-20.3c-2.2-2.5-4.8-5.2-7.8-6.2c-21.2-7.3-41,5.1-43.8,26.2
		c-2.1,15.7-1,31.8-1.3,47.7c0,2.1,0,4.2,0,6.6c-3.1,0-5.7,0-8.7,0C286.3,381.1,286.3,338.3,286.3,295.2z"/>
	<path d="M445,345.4c0,15.5,0.2,30.7-0.1,45.8c-0.2,11.1-12.6,23.8-23.5,25.9c-8.6,1.6-16.7,1-24.1-3.5
		c-9.5-5.8-13.1-15.1-14.1-25.6c-0.5-5.6-0.5-11.4,0.4-16.9c2.9-17,19.9-30.3,37.7-29.1c3.5,0.2,7-0.3,10.5,0.2
		C436.2,342.8,440.5,344.2,445,345.4z"/>
</g>
</svg>
