<?xml version="1.0" encoding="UTF-8" standalone="no"?>
<!DOCTYPE svg PUBLIC "-//W3C//DTD SVG 1.1//EN" "http://www.w3.org/Graphics/SVG/1.1/DTD/svg11.dtd">
<svg width="100%" height="100%" viewBox="0 0 120 315" version="1.1" xmlns="http://www.w3.org/2000/svg" xmlns:xlink="http://www.w3.org/1999/xlink" xml:space="preserve" style="fill-rule:evenodd;clip-rule:evenodd;stroke-linecap:round;stroke-linejoin:round;stroke-miterlimit:1.41421;">
    <g transform="matrix(1,0,0,1,-3.25,0)">
        <path d="M18.903,165.254C13.949,164.776 11.395,160.346 8.965,159.971C2.095,158.91 2.46,155.907 8.965,154.64C11.41,154.163 11.852,148.872 16.624,147.817C21.607,146.714 21.512,139.744 20.297,134.06C19.144,128.665 13.867,112.859 13.338,101.493C12.725,88.347 15.452,66.59 14.557,51.846C14.134,44.876 12.855,33.721 10.766,25.167C9.141,18.514 6.533,13.435 6.639,13.121C7.619,10.25 11.668,15.356 14.557,25.712C16.968,34.353 18.302,48.063 18.903,50.541C19.141,51.52 15.974,8.217 16.624,6.079C18.06,1.356 20.868,8.099 21.797,18.218C22.591,26.863 21.529,38.241 22.418,44.069C22.672,45.74 25.636,4.425 26.588,4.178C29.261,3.486 28.751,38.492 28.817,39.545C28.906,40.95 34.215,7.086 34.819,6.079C38.096,0.61 33.793,33.425 34.819,34.879C35.845,36.333 40.324,15.161 40.975,14.802C44.671,12.761 38.736,34.156 39.278,34.879C40.454,36.448 44.343,25.634 45.372,25.712C46.538,25.802 45.827,28.519 45.372,31.474C45.123,33.098 44.461,35.325 45.372,35.984C46.26,36.625 49.031,36.991 48.23,42.36C52.396,41.165 52.307,48.281 51.292,50.541C50.54,52.212 55.077,52.635 55.496,55.186C56.07,58.672 54.63,59.155 55.496,62.186C55.95,63.772 57.382,63.788 58.084,66.586C58.561,68.493 57.546,70.065 56.996,71.376C56.54,72.465 59.177,72.78 60,75.963C60.385,77.451 57.436,79.57 58.084,82.663C58.199,83.216 59.559,84.968 60,86.977C60.371,88.669 59.823,90.57 60,91.815C61.4,101.677 63.826,126.108 63.826,134.06C63.826,136.283 62.232,139.697 62.609,141.363C62.933,142.794 63.563,144.204 66.09,144.057C72.381,143.691 88.311,128.989 94.407,125.661C99.593,122.83 99.007,129.502 101.804,130.901C103.485,131.742 102.806,131.057 109.301,132.069C111.167,132.36 113.291,135.042 114.007,136.708C114.603,138.097 118.225,141.746 115.48,144.057C114.055,145.257 119.247,147.506 120,149.746C120.751,151.979 120.005,157.463 120,157.5C120.005,157.537 120.751,163.021 120,165.254C119.247,167.494 114.055,169.743 115.48,170.943C118.225,173.254 114.603,176.903 114.007,178.292C113.291,179.958 111.167,182.64 109.301,182.931C102.806,183.943 103.485,183.258 101.804,184.099C99.007,185.498 99.593,192.17 94.407,189.339C88.311,186.011 72.381,171.309 66.09,170.943C63.563,170.796 62.933,172.206 62.609,173.637C62.232,175.303 63.826,178.717 63.826,180.94C63.826,188.892 61.4,213.323 60,223.185C59.823,224.43 60.371,226.331 60,228.023C59.559,230.032 58.199,231.784 58.084,232.337C57.436,235.43 60.385,237.549 60,239.037C59.177,242.22 56.54,242.535 56.996,243.624C57.546,244.935 58.561,246.507 58.084,248.414C57.382,251.212 55.95,251.228 55.496,252.814C54.63,255.845 56.07,256.328 55.496,259.814C55.077,262.365 50.54,262.788 51.292,264.459C52.307,266.719 52.396,273.835 48.23,272.64C49.031,278.009 46.26,278.375 45.372,279.016C44.461,279.675 45.123,281.902 45.372,283.526C45.827,286.481 46.538,289.198 45.372,289.288C44.343,289.366 40.454,278.552 39.278,280.121C38.736,280.844 44.671,302.239 40.975,300.198C40.324,299.839 35.845,278.667 34.819,280.121C33.793,281.575 38.096,314.39 34.819,308.921C34.215,307.914 28.906,274.05 28.817,275.455C28.751,276.508 29.261,311.514 26.588,310.822C25.636,310.575 22.672,269.26 22.418,270.931C21.529,276.759 22.591,288.137 21.797,296.782C20.868,306.901 18.06,313.644 16.624,308.921C15.974,306.783 19.141,263.48 18.903,264.459C18.302,266.937 16.968,280.647 14.557,289.288C11.668,299.644 7.619,304.75 6.639,301.879C6.533,301.565 9.141,296.486 10.766,289.833C12.855,281.279 14.134,270.124 14.557,263.154C15.452,248.41 12.725,226.653 13.338,213.507C13.867,202.141 19.144,186.335 20.297,180.94C21.302,176.236 24.333,165.777 18.903,165.254Z" style="fill:white;fill-opacity:0.705882;stroke-width:1px;stroke:black;"/>
    </g>
</svg>
