<?xml version="1.0" encoding="UTF-8" standalone="no"?><!DOCTYPE svg PUBLIC "-//W3C//DTD SVG 1.1//EN" "http://www.w3.org/Graphics/SVG/1.1/DTD/svg11.dtd"><svg width="100%" height="100%" viewBox="0 0 87 83" version="1.1" xmlns="http://www.w3.org/2000/svg" xmlns:xlink="http://www.w3.org/1999/xlink" xml:space="preserve" style="fill-rule:evenodd;clip-rule:evenodd;stroke-linecap:round;stroke-linejoin:round;stroke-miterlimit:1.41421;"><path d="M52.188,8.91c-0.007,-0.099 -0.01,-0.2 -0.01,-0.301c0,-2.601 2.111,-4.712 4.712,-4.712c2.6,0 4.712,2.111 4.712,4.712c0,0.7 -0.154,1.366 -0.428,1.963c4.566,1.755 8.491,4.807 11.323,8.703c0.598,-0.462 1.182,-0.941 1.751,-1.438l0.005,0.021l0.008,0.029l0.002,0.01l0.006,0.024l0.01,0.044l0.006,0.025l0.009,0.04l0.005,0.022l0.006,0.026l0.011,0.047l0.008,0.036l0.009,0.041l0.008,0.036c0.004,0.018 0.008,0.037 0.012,0.056l0.01,0.044l0.011,0.05l0.01,0.047c0.005,0.022 0.009,0.045 0.014,0.068l0.01,0.049l0.008,0.034l0.006,0.032l0.011,0.054l0.009,0.04l0.009,0.044l0.009,0.045l0.009,0.046l0.009,0.047l0.01,0.047c0.004,0.019 0.007,0.039 0.011,0.059l0.008,0.04l0.01,0.048c0.004,0.021 0.008,0.042 0.012,0.063l0.008,0.045l0.008,0.041l0.001,0.007c0.004,0.022 0.009,0.043 0.013,0.065l0.009,0.05l0.008,0.04l0.001,0.009c0.004,0.023 0.009,0.046 0.013,0.068l0.01,0.055l0.007,0.038l0.002,0.012c0.004,0.023 0.008,0.047 0.013,0.07l0.01,0.061l0.007,0.035l0.004,0.027c0.188,1.063 0.405,2.514 0.56,4.225c1.339,3.069 2.082,6.457 2.082,10.018c0,9.795 -5.623,18.288 -13.814,22.425c8.676,1.525 18.186,3.729 20.225,5.205c3.229,2.339 -8.438,7.126 -13.537,7.126c-3.669,0 -10.984,-3.476 -15.062,-5.572l-0.033,-0.017l-0.018,-0.009l-0.031,-0.016l-0.043,-0.023l-0.026,-0.013l-0.026,-0.013l-0.039,-0.021l-0.033,-0.016l-0.018,-0.01l-0.033,-0.017l-0.048,-0.025l-0.022,-0.011l-0.011,-0.006l-0.04,-0.02l-0.056,-0.03l-0.013,-0.007l-0.003,-0.001l-0.041,-0.021l-0.069,-0.036l-0.065,-0.034l-0.043,-0.023l-0.004,-0.002l-0.012,-0.006l-0.051,-0.026l-0.039,-0.021l-0.012,-0.006l-0.019,-0.01l-0.041,-0.022l-0.032,-0.017l-0.019,-0.01l-0.026,-0.013l-0.032,-0.017l-0.025,-0.013l-0.026,-0.014l-0.032,-0.017l-0.024,-0.012l-0.017,-0.009l-0.034,-0.018l-0.038,-0.02l-0.016,-0.008l-0.009,-0.006l-0.043,-0.022l-0.041,-0.022l-0.008,-0.004l-0.003,-0.002l-0.065,-0.034l-0.031,-0.016l-0.038,-0.021l-0.049,-0.026l-0.006,-0.003l-0.01,-0.005l-0.035,-0.019l-0.037,-0.019l-0.012,-0.007l-0.016,-0.008l-0.029,-0.016l-0.028,-0.015l-0.019,-0.01l-0.021,-0.011l-0.022,-0.012l-0.021,-0.011l-0.026,-0.014l-0.024,-0.013l-0.016,-0.009l-0.015,-0.007l-0.032,-0.018l-0.027,-0.014l-0.011,-0.006l-0.008,-0.004l-0.041,-0.023l-0.027,-0.014l-0.005,-0.003c-0.025,-0.013 -0.051,-0.027 -0.076,-0.04l-0.003,-0.002l-0.024,-0.013l-0.041,-0.023l-0.007,-0.003l-0.008,-0.004l-0.023,-0.013l-0.03,-0.016l-0.011,-0.006l-0.012,-0.006l-0.019,-0.011l-0.022,-0.012l-0.017,-0.009l-0.015,-0.008l-0.014,-0.008l-0.016,-0.008l-0.021,-0.012l-0.018,-0.009l-0.01,-0.006l-0.01,-0.006l-0.01,-0.005c-0.034,-0.019 -0.067,-0.037 -0.099,-0.054l-0.001,0l-0.002,-0.002l-0.052,-0.028l-0.036,-0.02l-0.007,-0.004l-0.004,-0.001l-0.007,-0.004l-0.025,-0.014l-0.05,-0.028l-0.011,-0.006l-0.009,-0.005l-0.023,-0.012l-0.03,-0.017l-0.015,-0.008l-0.012,-0.007l-0.015,-0.008l-0.019,-0.01l-0.017,-0.01l-0.011,-0.006l-0.009,-0.005l-0.01,-0.006l-0.017,-0.009l-0.009,-0.005l-0.004,-0.002c-0.022,-0.012 -0.033,-0.019 -0.033,-0.019c0,0 0.009,0.007 0.027,0.02l0.023,0.017l0.038,0.027l0.03,0.022l0.018,0.013l0.046,0.034l0.012,0.009l0.067,0.049l0.041,0.03l0.039,0.028c0.024,0.018 0.049,0.037 0.075,0.056l0.033,0.024l0.055,0.041l0.06,0.045l0.057,0.042l0.063,0.047l0.045,0.034l0.021,0.015l0.036,0.028l0.032,0.023l0.028,0.021l0.042,0.032l0.019,0.015l0.054,0.04l0.075,0.057l0.066,0.049l0.012,0.009l0.056,0.043l0.023,0.018l0.047,0.035l0.035,0.027l0.036,0.027l0.023,0.017l0.025,0.02l0.025,0.019l0.03,0.023l0.031,0.023l0.014,0.011l0.074,0.056l0.089,0.069l0.036,0.027l0.032,0.025l0.024,0.019l0.03,0.023l0.026,0.02l0.015,0.012l0.022,0.016l0.025,0.02l0.019,0.015l0.022,0.017l0.029,0.022l0.032,0.025l0.028,0.021l0.037,0.029l0.018,0.014l0.034,0.026l0.046,0.036l0.091,0.072c3.011,2.353 7.978,6.556 7.206,8.117c-1.098,2.219 -11.943,5.58 -15.978,3.544c-3.818,-1.927 -8.558,-11.304 -8.321,-15.16l0,-0.001l0,-0.001l0,-0.009l0.001,-0.007l0,0l0,-0.002l0.001,-0.014l0.001,-0.014l0,-0.003l0,-0.001l0.001,-0.006l0,-0.007l0.001,-0.003l0,-0.004l0.001,-0.009l0.001,-0.014l0,-0.006l0,0l0.001,-0.004l0,-0.007l0.001,-0.005l0,-0.004l0.001,-0.007l0,-0.004l0,-0.001l0.001,-0.011l0.001,-0.007l0.001,-0.007l0,-0.007l0.001,-0.004l0,-0.005l0.001,-0.004l0,-0.003l0.001,-0.01l0.001,-0.005l0,-0.004l0.002,-0.013l0,-0.003l0,-0.003l0.001,-0.005l0.001,-0.005l0,-0.007l0.001,-0.006l0,-0.002c0.001,-0.006 0.002,-0.012 0.003,-0.018l0,-0.002l0.001,-0.004l0.001,-0.008l0,-0.006l0.001,-0.004l0,-0.003c0.001,-0.006 0.002,-0.012 0.003,-0.018l0,-0.001l0.001,-0.003l0.001,-0.011l0.001,-0.005l0,-0.003l0.001,-0.003l0.001,-0.005l0.001,-0.011l0.001,-0.002l0,-0.001c0.001,-0.006 0.002,-0.013 0.003,-0.019l0,-0.002l0.001,-0.003l0.001,-0.007l0.001,-0.008l0.001,-0.003l0,-0.002c0.001,-0.006 0.002,-0.012 0.004,-0.018l0,-0.002l0,-0.003l0.002,-0.009l0.001,-0.006l0.001,-0.003l0,-0.002c0.001,-0.006 0.003,-0.012 0.004,-0.018l0,-0.001l0,-0.001l0.003,-0.013l0,-0.004l0.001,-0.002l0.001,-0.003l0.001,-0.005l0.002,-0.011l0,-0.002l0,-0.001c0.002,-0.006 0.003,-0.012 0.004,-0.018l0.001,-0.001l0,-0.003l0.002,-0.007l0.002,-0.008l0,-0.003l0.001,-0.001c0.001,-0.006 0.002,-0.012 0.004,-0.018l0,-0.001l0.001,-0.002l0.002,-0.01l0.001,-0.005l0.001,-0.003l0.001,-0.002c0.001,-0.006 0.002,-0.012 0.004,-0.018c0.316,-1.23 1.564,-2.19 3.25,-2.9c-6.687,-3.481 -11.615,-9.883 -13.086,-17.51l-0.417,-3.401c-0.025,-0.455 -0.037,-0.913 -0.037,-1.374c0,-9.749 5.568,-18.207 13.695,-22.366c-0.203,-0.525 -0.314,-1.096 -0.314,-1.692c0,-2.6 2.111,-4.712 4.712,-4.712c2.28,0 4.184,1.623 4.619,3.776c0.788,-0.075 1.587,-0.113 2.394,-0.113l0.01,0Z" style="fill:none;stroke-width:4.5px;stroke:#606060;stroke-opacity:0.576471;"/><g><path d="M37.362,59.202c-0.866,3.37 4.197,13.724 8.232,15.76c4.035,2.036 14.88,-1.325 15.978,-3.544c1.097,-2.219 -9.394,-9.771 -9.394,-9.771c0,0 12.728,7.126 17.981,7.126c5.099,0 16.766,-4.787 13.537,-7.126c-3.228,-2.338 -25.184,-6.497 -32.907,-6.904c-4.709,-0.249 -12.561,1.09 -13.427,4.459Z" style="fill:#f08295;"/><path d="M37.266,60.241c-0.01,-0.393 0.02,-0.743 0.096,-1.039c0.866,-3.369 8.718,-4.708 13.427,-4.459c4.069,0.215 12.088,1.47 19.238,2.953c-3.301,3.338 -7.53,5.756 -12.267,6.833c-3.163,-1.528 -5.582,-2.882 -5.582,-2.882c0,0 1.948,1.402 4.077,3.176c-1.327,0.217 -2.689,0.33 -4.077,0.33c-5.582,0 -10.741,-1.826 -14.912,-4.912Z" style="fill:url(#_Linear1);"/></g><g><circle cx="52.178" cy="34.017" r="25.106" style="fill:url(#_Linear2);"/><path d="M35.287,30.332c-3.104,11.535 10.452,30.947 24.667,26.008c21.417,-7.441 14.224,-36.118 14.224,-36.118c-9.28,8.1 -22.272,11.433 -38.891,10.11Z" style="fill:#790f22;"/><path d="M35.358,27.946c-3.104,11.535 10.452,30.947 24.666,26.008c21.418,-7.441 14.224,-36.117 14.224,-36.117c-9.279,8.1 -22.271,11.433 -38.89,10.109Z" style="fill:#f08295;"/><path d="M35.41,35.746c-0.625,-2.746 -0.688,-5.438 -0.052,-7.8c16.619,1.324 29.611,-2.009 38.89,-10.109c0,0 0.839,3.344 1.091,8.045c0.012,0.22 -5.014,7.238 -19.063,10.408c-6.041,1.363 -13.338,0.726 -20.866,-0.544Z" style="fill:#fff;"/><path d="M73.366,40.934c-2.072,5.488 -6.047,10.486 -13.342,13.02c-7.767,2.699 -15.338,-1.873 -20.101,-8.458c10.913,7.294 25.997,2.015 33.443,-4.562Z" style="fill:#fff;"/><path d="M45.375,14.888c2.213,-0.529 4.224,-0.059 4.489,1.048c0.264,1.106 -1.319,2.434 -3.532,2.962c-2.214,0.529 -4.225,0.059 -4.489,-1.048c-0.264,-1.106 1.318,-2.434 3.532,-2.962Z" style="fill:#747474;fill-opacity:0.490196;"/><path d="M57.814,12.181c2.252,0.325 3.962,1.412 3.816,2.426c-0.147,1.014 -2.094,1.573 -4.346,1.248c-2.252,-0.324 -3.962,-1.411 -3.816,-2.425c0.146,-1.014 2.093,-1.574 4.346,-1.249Z" style="fill:#747474;fill-opacity:0.490196;"/><path d="M27.394,38.046l2.304,-2.863c1.552,-0.298 2.365,0.351 2.646,1.682l-3.892,5.375c-0.469,-1.35 -0.825,-2.751 -1.058,-4.194Z" style="fill:#747474;fill-opacity:0.490196;"/><path d="M18.697,42.129c2.604,3.045 2.853,5.926 0.36,6.8c-2.874,1.009 -8.31,-1.029 -12.132,-4.547c-3.822,-3.518 -4.592,-7.192 -1.718,-8.201c2.413,-0.846 6.63,0.453 10.182,2.973l15.453,-4.961c1.46,0.605 1.781,1.595 1.283,2.86l-13.428,5.076Z" style="fill:#5f4545;"/></g><g><circle cx="45.165" cy="9.959" r="4.712" style="fill:#fff;"/><circle cx="45.853" cy="11.712" r="1.753" style="fill:#815e5e;"/><circle cx="56.89" cy="8.609" r="4.712" style="fill:#fff;"/><ellipse cx="57.578" cy="8.029" rx="1.753" ry="1.602" style="fill:#815e5e;"/></g><defs><linearGradient id="_Linear1" x1="0" y1="0" x2="1" y2="0" gradientUnits="userSpaceOnUse" gradientTransform="matrix(32.7626,0,0,10.4388,37.2643,59.9332)"><stop offset="0%" style="stop-color:#c6597c;stop-opacity:1"/><stop offset="100%" style="stop-color:#852e49;stop-opacity:1"/></linearGradient><linearGradient id="_Linear2" x1="0" y1="0" x2="1" y2="0" gradientUnits="userSpaceOnUse" gradientTransform="matrix(-3.57368,37.6535,-37.6535,-3.57368,47.5751,14.4003)"><stop offset="0%" style="stop-color:#c6597c;stop-opacity:1"/><stop offset="100%" style="stop-color:#852e49;stop-opacity:1"/></linearGradient></defs></svg>