<?xml version="1.0" encoding="UTF-8" standalone="no"?>
<!DOCTYPE svg PUBLIC "-//W3C//DTD SVG 1.1//EN" "http://www.w3.org/Graphics/SVG/1.1/DTD/svg11.dtd">
<svg width="100%" height="100%" viewBox="0 0 185 83" version="1.1" xmlns="http://www.w3.org/2000/svg" xmlns:xlink="http://www.w3.org/1999/xlink" xml:space="preserve" style="fill-rule:evenodd;clip-rule:evenodd;stroke-linejoin:round;stroke-miterlimit:1.41421;">
    <g transform="matrix(1,0,0,1,-571.145,-359.419)">
        <path d="M743.156,425.269C743.156,416.171 736.174,408.795 727.562,408.795C718.949,408.795 711.967,416.171 711.967,425.269C711.967,434.369 718.949,441.745 727.562,441.745C736.174,441.745 743.156,434.369 743.156,425.269" style="fill:rgb(35,38,42);fill-rule:nonzero;"/>
    </g>
    <g transform="matrix(1,0,0,1,-571.145,-359.419)">
        <path d="M652.146,427.419C652.146,427.419 683.334,421.419 711.082,403.959C715.796,400.991 721.084,398.649 727.084,398.649C741.87,398.649 753.854,410.635 753.854,425.419C753.854,426.093 753.822,426.758 753.772,427.419L652.146,427.419Z" style="fill:rgb(69,76,83);fill-rule:nonzero;"/>
    </g>
    <g transform="matrix(1,0,0,1,-571.145,-359.419)">
        <path d="M744.538,397.87C744.562,393.568 742.318,390.068 739.525,390.052C736.731,390.036 734.449,393.512 734.423,397.812C734.398,402.114 736.642,405.614 739.437,405.631C742.228,405.645 744.514,402.171 744.538,397.87" style="fill:rgb(176,173,167);fill-rule:nonzero;"/>
    </g>
    <g transform="matrix(1,0,0,1,-571.145,-359.419)">
        <path d="M743.202,397.862C743.221,394.697 741.568,392.122 739.514,392.111C737.458,392.099 735.777,394.655 735.761,397.82C735.742,400.985 737.393,403.56 739.449,403.571C741.503,403.584 743.183,401.027 743.202,397.862" style="fill:white;fill-rule:nonzero;"/>
    </g>
    <g transform="matrix(1,0,0,1,-571.145,-359.419)">
        <path d="M605,383.919L605,363.419C605,361.21 606.791,359.419 609,359.419L679,359.419C681.209,359.419 683,361.21 683,363.419L683,383.919L605,383.919Z" style="fill:rgb(69,76,83);fill-rule:nonzero;"/>
    </g>
    <g transform="matrix(1,0,0,1.83311,-571.328,-664.168)">
        <rect x="619" y="364" width="21" height="10" style="fill:rgb(255,74,57);fill-rule:nonzero;"/>
    </g>
    <g transform="matrix(1,0,0,1.83311,-528.145,-664.168)">
        <rect x="619" y="364" width="21" height="10" style="fill:rgb(255,74,57);fill-rule:nonzero;"/>
    </g>
    <g transform="matrix(0.7121,0,0,1.83311,-368.435,-664.168)">
        <rect x="619" y="364" width="21" height="10" style="fill:rgb(255,74,57);fill-rule:nonzero;"/>
    </g>
    <g transform="matrix(1,0,0,1,-571.145,-359.419)">
        <path d="M651.916,425.269C651.916,416.171 644.933,408.795 636.32,408.795C627.709,408.795 620.727,416.171 620.727,425.269C620.727,434.369 627.709,441.745 636.32,441.745C644.933,441.745 651.916,434.369 651.916,425.269" style="fill:rgb(35,38,42);fill-rule:nonzero;"/>
    </g>
    <g transform="matrix(1,0,0,1,-571.145,-359.419)">
        <path d="M577,423C577,425.209 578.791,427 581,427L731,427C733.209,427 735,425.628 735,423.419L735,384.419C735,382.21 733.209,380 731,380L602.725,380C576.332,380 577,423 577,423" style="fill:rgb(69,76,83);fill-rule:nonzero;"/>
    </g>
    <g transform="matrix(1,0,0,1,-571.145,-359.419)">
        <path d="M671.918,405.837C671.918,395.948 664.328,387.931 654.967,387.931C645.606,387.931 638.016,395.948 638.016,405.837C638.016,415.727 645.606,423.744 654.967,423.744C664.328,423.744 671.918,415.727 671.918,405.837" style="fill:rgb(35,38,42);fill-rule:nonzero;"/>
    </g>
    <g transform="matrix(1,0,0,1,-571.145,-359.419)">
        <path d="M665.106,405.837C665.106,399.922 660.567,395.126 654.967,395.126C649.368,395.126 644.829,399.922 644.829,405.837C644.829,411.753 649.368,416.548 654.967,416.548C660.567,416.548 665.106,411.753 665.106,405.837" style="fill:white;fill-rule:nonzero;"/>
    </g>
    <g transform="matrix(1,0,0,1,-571.145,-359.419)">
        <path d="M661.037,405.837C661.037,402.296 658.32,399.425 654.967,399.425C651.613,399.425 648.896,402.296 648.896,405.837C648.896,409.38 651.613,412.251 654.967,412.251C658.32,412.251 661.037,409.38 661.037,405.837" style="fill:rgb(176,173,167);fill-rule:nonzero;"/>
    </g>
    <g transform="matrix(1,0,0,1,-571.145,-359.419)">
        <path d="M613.727,427.419C613.727,427.419 644.916,421.419 672.663,403.959C677.378,400.991 682.665,398.649 688.666,398.649C703.451,398.649 715.436,410.635 715.436,425.419C715.436,426.093 715.403,426.758 715.354,427.419L613.727,427.419Z" style="fill:rgb(52,57,62);fill-rule:nonzero;"/>
    </g>
    <g transform="matrix(1,0,0,1,-571.145,-359.419)">
        <path d="M672.854,427.419C672.854,427.419 641.666,421.419 613.918,403.959C609.204,400.991 603.916,398.649 597.916,398.649C583.13,398.649 571.145,410.635 571.145,425.419C571.145,426.093 571.179,426.758 571.228,427.419L672.854,427.419Z" style="fill:rgb(52,57,62);fill-rule:nonzero;"/>
    </g>
    <g transform="matrix(1,0,0,1,-571.145,-359.419)">
        <path d="M612.675,423.837C612.675,413.948 605.086,405.931 595.725,405.931C586.363,405.931 578.775,413.948 578.775,423.837C578.775,433.727 586.363,441.744 595.725,441.744C605.086,441.744 612.675,433.727 612.675,423.837" style="fill:rgb(35,38,42);fill-rule:nonzero;"/>
    </g>
    <g transform="matrix(1,0,0,1,-571.145,-359.419)">
        <path d="M605.863,423.837C605.863,417.922 601.324,413.126 595.724,413.126C590.125,413.126 585.586,417.922 585.586,423.837C585.586,429.753 590.125,434.548 595.724,434.548C601.324,434.548 605.863,429.753 605.863,423.837" style="fill:white;fill-rule:nonzero;"/>
    </g>
    <g transform="matrix(1,0,0,1,-571.145,-359.419)">
        <path d="M601.795,423.837C601.795,420.296 599.078,417.425 595.725,417.425C592.373,417.425 589.654,420.296 589.654,423.837C589.654,427.38 592.373,430.251 595.725,430.251C599.078,430.251 601.795,427.38 601.795,423.837" style="fill:rgb(176,173,167);fill-rule:nonzero;"/>
    </g>
    <g transform="matrix(1,0,0,1,-571.145,-359.419)">
        <path d="M705.918,423.837C705.918,413.948 698.328,405.931 688.967,405.931C679.606,405.931 672.016,413.948 672.016,423.837C672.016,433.727 679.606,441.744 688.967,441.744C698.328,441.744 705.918,433.727 705.918,423.837" style="fill:rgb(35,38,42);fill-rule:nonzero;"/>
    </g>
    <g transform="matrix(1,0,0,1,-571.145,-359.419)">
        <path d="M699.106,423.837C699.106,417.922 694.567,413.126 688.967,413.126C683.368,413.126 678.829,417.922 678.829,423.837C678.829,429.753 683.368,434.548 688.967,434.548C694.567,434.548 699.106,429.753 699.106,423.837" style="fill:white;fill-rule:nonzero;"/>
    </g>
    <g transform="matrix(1,0,0,1,-571.145,-359.419)">
        <path d="M695.037,423.837C695.037,420.296 692.32,417.425 688.967,417.425C685.613,417.425 682.896,420.296 682.896,423.837C682.896,427.38 685.613,430.251 688.967,430.251C692.32,430.251 695.037,427.38 695.037,423.837" style="fill:rgb(176,173,167);fill-rule:nonzero;"/>
    </g>
    <g transform="matrix(1,0,0,1,-571.145,-359.419)">
        <path d="M716,421C716,423.209 717.791,425 720,425L731,425C733.209,425 735,423.209 735,421L735,388C735,385.791 733.209,384 731,384L720,384C717.791,384 716,385.791 716,388L716,421Z" style="fill:rgb(35,38,42);fill-rule:nonzero;"/>
    </g>
    <g transform="matrix(1,0,0,1,-571.145,-359.419)">
        <path d="M720.538,397.87C720.562,393.568 718.318,390.068 715.525,390.052C712.731,390.036 710.449,393.512 710.423,397.812C710.398,402.114 712.642,405.614 715.437,405.631C718.228,405.645 720.514,402.171 720.538,397.87" style="fill:rgb(176,173,167);fill-rule:nonzero;"/>
    </g>
    <g transform="matrix(1,0,0,1,-571.145,-359.419)">
        <path d="M719.202,397.862C719.221,394.697 717.568,392.122 715.514,392.111C713.458,392.099 711.777,394.655 711.761,397.82C711.742,400.985 713.393,403.56 715.449,403.571C717.503,403.584 719.183,401.027 719.202,397.862" style="fill:white;fill-rule:nonzero;"/>
    </g>
    <g transform="matrix(0.904643,0,0,0.560893,-22.8081,-27.5473)">
        <g>
            <path d="M172,169.091C172,172.355 174.646,175 177.909,175L223.091,175C226.354,175 229,172.355 229,169.091L229,168.909C229,165.646 226.354,163 223.091,163L177.909,163C174.646,163 172,165.646 172,168.909L172,169.091Z" style="fill:rgb(35,38,42);fill-rule:nonzero;"/>
        </g>
    </g>
    <g transform="matrix(1,0,0,1,-571.145,-359.419)">
        <path d="M619,383.919L605,383.919L605,363.419C605,361.21 606.791,359.419 609,359.419L684.75,359.419L684.75,362.085L619,362.085L619,383.919Z" style="fill:rgb(112,16,0);fill-rule:nonzero;"/>
    </g>
    <g transform="matrix(0.757766,0,0,0.75,1.1778,-82.3917)">
        <path d="M209.888,134.321C209.888,131.947 207.964,130.023 205.59,130.023C203.217,130.023 201.293,131.947 201.293,134.321C201.293,136.694 203.217,138.618 205.59,138.618C207.964,138.618 209.888,136.694 209.888,134.321" style="fill:rgb(99,138,189);fill-rule:nonzero;"/>
    </g>
</svg>
