<?xml version="1.0" encoding="utf-8"?>
<!-- Generator: Adobe Illustrator 19.0.1, SVG Export Plug-In . SVG Version: 6.00 Build 0)  -->
<svg version="1.1" id="Layer_1" xmlns="http://www.w3.org/2000/svg" xmlns:xlink="http://www.w3.org/1999/xlink" x="0px" y="0px"
	 viewBox="0 0 1200 1200" style="enable-background:new 0 0 1200 1200;" xml:space="preserve">
<g transform="matrix(1,0,0,1,-571.145,-359.419)">
	<path style="fill:#23262A;" d="M1135.9,575.6c0-29.9-22.9-54.1-51.2-54.1c-28.3,0-51.2,24.2-51.2,54.1c0,29.9,22.9,54.1,51.2,54.1
		C1113,629.7,1135.9,605.5,1135.9,575.6"/>
</g>
<g transform="matrix(1,0,0,1,-571.145,-359.419)">
	<path style="fill:#454C53;" d="M837.1,582.7c0,0,102.4-19.7,193.5-77c15.5-9.7,32.8-17.4,52.5-17.4c48.5,0,87.9,39.4,87.9,87.9
		c0,2.2-0.1,4.4-0.3,6.6H837.1z"/>
</g>
<g transform="matrix(1,0,0,1,-571.145,-359.419)">
	<path style="fill:#B0ADA7;" d="M1140.4,485.7c0.1-14.1-7.3-25.6-16.5-25.7c-9.2-0.1-16.7,11.4-16.8,25.5
		c-0.1,14.1,7.3,25.6,16.5,25.7C1132.9,511.2,1140.4,499.8,1140.4,485.7"/>
</g>
<g transform="matrix(1,0,0,1,-571.145,-359.419)">
	<path style="fill:#FFFFFF;" d="M1136.1,485.6c0.1-10.4-5.4-18.8-12.1-18.9c-6.8,0-12.3,8.4-12.3,18.7c-0.1,10.4,5.4,18.8,12.1,18.9
		C1130.5,504.4,1136,496,1136.1,485.6"/>
</g>
<g transform="matrix(1,0,0,1,-571.145,-359.419)">
	<path style="fill:#454C53;" d="M682.3,439.9v-67.3c0-7.3,5.9-13.1,13.1-13.1h229.8c7.3,0,13.1,5.9,13.1,13.1v67.3H682.3z"/>
</g>
<g transform="matrix(1,0,0,1.83311,-571.328,-664.168)">
	<rect x="727.8" y="367.8" style="fill:#FF4A39;" width="68.9" height="32.8"/>
</g>
<g transform="matrix(1,0,0,1.83311,-528.145,-664.168)">
	<rect x="826.4" y="367.8" style="fill:#FF4A39;" width="68.9" height="32.8"/>
</g>
<g transform="matrix(0.7121,0,0,1.83311,-368.435,-664.168)">
	<rect x="851" y="367.8" style="fill:#FF4A39;" width="68.9" height="32.8"/>
</g>
<g transform="matrix(1,0,0,1,-571.145,-359.419)">
	<path style="fill:#23262A;" d="M836.3,575.6c0-29.9-22.9-54.1-51.2-54.1c-28.3,0-51.2,24.2-51.2,54.1c0,29.9,22.9,54.1,51.2,54.1
		C813.4,629.7,836.3,605.5,836.3,575.6"/>
</g>
<g transform="matrix(1,0,0,1,-571.145,-359.419)">
	<path style="fill:#454C53;" d="M590.4,568.2c0,7.3,5.9,13.1,13.1,13.1H1096c7.3,0,13.1-4.5,13.1-11.8v-128
		c0-7.3-5.9-14.5-13.1-14.5H674.8C588.2,427,590.4,568.2,590.4,568.2"/>
</g>
<g transform="matrix(1,0,0,1,-571.145,-359.419)">
	<path style="fill:#23262A;" d="M902,511.8c0-32.5-24.9-58.8-55.7-58.8c-30.7,0-55.7,26.3-55.7,58.8c0,32.5,24.9,58.8,55.7,58.8
		C877.1,570.6,902,544.3,902,511.8"/>
</g>
<g transform="matrix(1,0,0,1,-571.145,-359.419)">
	<path style="fill:#FFFFFF;" d="M879.6,511.8c0-19.4-14.9-35.2-33.3-35.2c-18.4,0-33.3,15.7-33.3,35.2c0,19.4,14.9,35.2,33.3,35.2
		C864.7,547,879.6,531.2,879.6,511.8"/>
</g>
<g transform="matrix(1,0,0,1,-571.145,-359.419)">
	<path style="fill:#B0ADA7;" d="M866.3,511.8c0-11.6-8.9-21.1-19.9-21.1c-11,0-19.9,9.4-19.9,21.1c0,11.6,8.9,21.1,19.9,21.1
		C857.4,532.9,866.3,523.5,866.3,511.8"/>
</g>
<g transform="matrix(1,0,0,1,-571.145,-359.419)">
	<path style="fill:#34393E;" d="M711,582.7c0,0,102.4-19.7,193.5-77c15.5-9.7,32.8-17.4,52.5-17.4c48.5,0,87.9,39.4,87.9,87.9
		c0,2.2-0.1,4.4-0.3,6.6H711z"/>
</g>
<g transform="matrix(1,0,0,1,-571.145,-359.419)">
	<path style="fill:#34393E;" d="M905.1,582.7c0,0-102.4-19.7-193.5-77c-15.5-9.7-32.8-17.4-52.5-17.4c-48.5,0-87.9,39.4-87.9,87.9
		c0,2.2,0.1,4.4,0.3,6.6H905.1z"/>
</g>
<g transform="matrix(1,0,0,1,-571.145,-359.419)">
	<path style="fill:#23262A;" d="M707.5,570.9c0-32.5-24.9-58.8-55.7-58.8c-30.7,0-55.7,26.3-55.7,58.8c0,32.5,24.9,58.8,55.7,58.8
		C682.6,629.7,707.5,603.4,707.5,570.9"/>
</g>
<g transform="matrix(1,0,0,1,-571.145,-359.419)">
	<path style="fill:#FFFFFF;" d="M685.1,570.9c0-19.4-14.9-35.2-33.3-35.2c-18.4,0-33.3,15.7-33.3,35.2c0,19.4,14.9,35.2,33.3,35.2
		C670.2,606.1,685.1,590.3,685.1,570.9"/>
</g>
<g transform="matrix(1,0,0,1,-571.145,-359.419)">
	<path style="fill:#B0ADA7;" d="M671.8,570.9c0-11.6-8.9-21.1-19.9-21.1c-11,0-19.9,9.4-19.9,21.1c0,11.6,8.9,21.1,19.9,21.1
		C662.9,592,671.8,582.6,671.8,570.9"/>
</g>
<g transform="matrix(1,0,0,1,-571.145,-359.419)">
	<path style="fill:#23262A;" d="M1013.6,570.9c0-32.5-24.9-58.8-55.7-58.8c-30.7,0-55.7,26.3-55.7,58.8c0,32.5,24.9,58.8,55.7,58.8
		C988.7,629.7,1013.6,603.4,1013.6,570.9"/>
</g>
<g transform="matrix(1,0,0,1,-571.145,-359.419)">
	<path style="fill:#FFFFFF;" d="M991.3,570.9c0-19.4-14.9-35.2-33.3-35.2c-18.4,0-33.3,15.7-33.3,35.2c0,19.4,14.9,35.2,33.3,35.2
		C976.4,606.1,991.3,590.3,991.3,570.9"/>
</g>
<g transform="matrix(1,0,0,1,-571.145,-359.419)">
	<path style="fill:#B0ADA7;" d="M977.9,570.9c0-11.6-8.9-21.1-19.9-21.1c-11,0-19.9,9.4-19.9,21.1c0,11.6,8.9,21.1,19.9,21.1
		C969,592,977.9,582.6,977.9,570.9"/>
</g>
<g transform="matrix(1,0,0,1,-571.145,-359.419)">
	<path style="fill:#23262A;" d="M1046.7,561.6c0,7.3,5.9,13.1,13.1,13.1h36.1c7.3,0,13.1-5.9,13.1-13.1V453.3
		c0-7.3-5.9-13.1-13.1-13.1h-36.1c-7.3,0-13.1,5.9-13.1,13.1V561.6z"/>
</g>
<g transform="matrix(1,0,0,1,-571.145,-359.419)">
	<path style="fill:#B0ADA7;" d="M1061.6,485.7c0.1-14.1-7.3-25.6-16.5-25.7c-9.2-0.1-16.7,11.4-16.8,25.5
		c-0.1,14.1,7.3,25.6,16.5,25.7C1054.1,511.2,1061.6,499.8,1061.6,485.7"/>
</g>
<g transform="matrix(1,0,0,1,-571.145,-359.419)">
	<path style="fill:#FFFFFF;" d="M1057.3,485.6c0.1-10.4-5.4-18.8-12.1-18.9c-6.8,0-12.3,8.4-12.3,18.7c-0.1,10.4,5.4,18.8,12.1,18.9
		C1051.7,504.4,1057.2,496,1057.3,485.6"/>
</g>
<g transform="matrix(0.904643,0,0,0.560893,-22.8081,-27.5473)">
	<g>
		<path style="fill:#23262A;" d="M507.2,443c0,10.7,8.7,19.4,19.4,19.4h148.3c10.7,0,19.4-8.7,19.4-19.4v-0.6
			c0-10.7-8.7-19.4-19.4-19.4H526.6c-10.7,0-19.4,8.7-19.4,19.4V443z"/>
	</g>
</g>
<g transform="matrix(1,0,0,1,-571.145,-359.419)">
	<path style="fill:#701000;" d="M728.3,439.9h-46v-67.3c0-7.3,5.9-13.1,13.1-13.1h248.7v8.8H728.3V439.9z"/>
</g>
<g transform="matrix(0.757766,0,0,0.75,1.1778,-82.3917)">
	<path style="fill:#638ABD;" d="M692.7,190.2c0-7.8-6.3-14.1-14.1-14.1c-7.8,0-14.1,6.3-14.1,14.1c0,7.8,6.3,14.1,14.1,14.1
		C686.4,204.3,692.7,198,692.7,190.2"/>
</g>
</svg>
