<?xml version="1.0" encoding="utf-8"?>
<!-- Generator: Adobe Illustrator 19.0.1, SVG Export Plug-In . SVG Version: 6.00 Build 0)  -->
<svg version="1.1" id="Layer_1" xmlns="http://www.w3.org/2000/svg" xmlns:xlink="http://www.w3.org/1999/xlink" x="0px" y="0px"
	 viewBox="0 0 1200 1200" style="enable-background:new 0 0 1200 1200;" xml:space="preserve">
<g transform="matrix(1,0,0,1,-578.454,-347.253)">
	<path style="fill:#23262A;" d="M1100,593.6c0-28.7-22-52-49.2-52c-27.2,0-49.2,23.3-49.2,52c0,28.7,22,52,49.2,52
		C1077.9,645.7,1100,622.4,1100,593.6"/>
</g>
<g transform="matrix(1,0,0,1,-570.704,-347.253)">
	<path style="fill:#454C53;" d="M829.3,600.4c0,0,98.5-18.9,186.1-74.1c14.9-9.4,31.6-16.8,50.5-16.8c46.7,0,84.5,37.9,84.5,84.5
		c0,2.1-0.1,4.2-0.3,6.3H829.3z"/>
</g>
<g transform="matrix(1.91655,0,0,1.21084,-1125.22,-428.198)">
	<path style="fill:#FFFFFF;" d="M595.3,461.2l20.9-94.9c0-7,4.8-12.6,11.8-12.6h227.7c7,0,29.5,5.7,29.5,12.6l13.5,94.9H595.3z"/>
</g>
<g transform="matrix(2.76482,0,0,2.58311,-1679.95,-932.502)">
	<path style="fill:#4D4D4D;" d="M644.1,402.1h66.3v-31.6h-58L644.1,402.1z"/>
</g>
<g transform="matrix(1.94166,0,0,1.83311,-1058.87,-652.002)">
	<path style="fill:#4D4D4D;" d="M778.7,413.5H845l-11.8-45.8h-61.4L778.7,413.5z"/>
</g>
<g transform="matrix(1.49447,0,0,1.83311,-824.718,-652.002)">
	<path style="fill:#4D4D4D;" d="M753.7,413.5h77.4l-7.4-44.5h-70L753.7,413.5z"/>
</g>
<g transform="matrix(1,0,0,1,-580.704,-347.253)">
	<path style="fill:#23262A;" d="M807,593.6c0-28.7-22.1-52-49.3-52c-27.2,0-49.2,23.3-49.2,52c0,28.7,22,52,49.2,52
		C784.9,645.7,807,622.4,807,593.6"/>
</g>
<g transform="matrix(1.01319,0,0,0.869986,-580.396,-291.737)">
	<path style="fill:#FF4A39;" d="M575.7,612.2c0,7,5.7,12.6,12.6,12.6h485.4c7,0,12.6-4.3,12.6-11.3V490.3c0-7-5.7-14-12.6-14H588.4
		C567.9,476.4,575.7,612.2,575.7,612.2"/>
</g>
<g transform="matrix(1,0,0,1,-570.704,-347.253)">
	<path style="fill:#FF4A39;" d="M891.7,532.3c0-31.2-24-56.5-53.5-56.5c-29.6,0-53.5,25.3-53.5,56.5c0,31.2,24,56.5,53.5,56.5
		C867.8,588.8,891.7,563.5,891.7,532.3"/>
</g>
<g transform="matrix(1,0,0,1,-570.704,-347.253)">
	<path style="fill:#FF4A39;" d="M870.2,532.3c0-18.7-14.3-33.8-32-33.8c-17.7,0-32,15.1-32,33.8c0,18.7,14.3,33.8,32,33.8
		C855.9,566.1,870.2,550.9,870.2,532.3"/>
</g>
<g transform="matrix(1,0,0,1,-570.704,-347.253)">
	<path style="fill:#FF4A39;" d="M857.4,532.3c0-11.2-8.6-20.2-19.2-20.2c-10.6,0-19.2,9.1-19.2,20.2c0,11.2,8.6,20.3,19.2,20.3
		C848.8,552.5,857.4,543.4,857.4,532.3"/>
</g>
<g transform="matrix(1,0,0,1,-570.704,-347.253)">
	<path style="fill:#FF4A39;" d="M708,600.4c0,0,98.5-18.9,186.1-74.1c14.9-9.4,31.6-16.8,50.5-16.8c46.7,0,84.5,37.9,84.5,84.5
		c0,2.1-0.1,4.2-0.3,6.3H708z"/>
</g>
<g transform="matrix(1,0,0,1,-570.704,-347.253)">
	<path style="fill:#FF4A39;" d="M894.7,600.4c0,0-98.5-18.9-186.1-74.1c-14.9-9.4-31.6-16.8-50.5-16.8c-46.7,0-84.5,37.9-84.5,84.5
		c0,2.1,0.1,4.2,0.3,6.3H894.7z"/>
</g>
<g transform="matrix(1,0,0,1,-570.704,-347.253)">
	<path style="fill:#23262A;" d="M704.6,589.1c0-31.2-24-56.5-53.5-56.5c-29.6,0-53.5,25.3-53.5,56.5c0,31.2,24,56.5,53.5,56.5
		C680.7,645.6,704.6,620.3,704.6,589.1"/>
</g>
<g transform="matrix(1,0,0,1,-570.704,-347.253)">
	<path style="fill:#FFFFFF;" d="M683.1,589.1c0-18.7-14.3-33.8-32-33.8c-17.7,0-32,15.1-32,33.8c0,18.7,14.3,33.8,32,33.8
		C668.8,622.9,683.1,607.8,683.1,589.1"/>
</g>
<g transform="matrix(1,0,0,1,-570.704,-347.253)">
	<path style="fill:#B0ADA7;" d="M670.3,589.1c0-11.2-8.6-20.2-19.2-20.2c-10.6,0-19.2,9.1-19.2,20.2c0,11.2,8.6,20.3,19.2,20.3
		C661.7,609.4,670.3,600.3,670.3,589.1"/>
</g>
<g transform="matrix(1,0,0,1,-570.704,-347.253)">
	<path style="fill:#23262A;" d="M999.1,589.1c0-31.2-24-56.5-53.5-56.5c-29.6,0-53.5,25.3-53.5,56.5c0,31.2,24,56.5,53.5,56.5
		C975.1,645.6,999.1,620.3,999.1,589.1"/>
</g>
<g transform="matrix(1,0,0,1,-570.704,-347.253)">
	<path style="fill:#FFFFFF;" d="M977.6,589.1c0-18.7-14.3-33.8-32-33.8c-17.7,0-32,15.1-32,33.8c0,18.7,14.3,33.8,32,33.8
		C963.2,622.9,977.6,607.8,977.6,589.1"/>
</g>
<g transform="matrix(1,0,0,1,-570.704,-347.253)">
	<path style="fill:#B0ADA7;" d="M964.7,589.1c0-11.2-8.6-20.2-19.2-20.2c-10.6,0-19.2,9.1-19.2,20.2c0,11.2,8.6,20.3,19.2,20.3
		C956.1,609.4,964.7,600.3,964.7,589.1"/>
</g>
<g transform="matrix(2.60338,0,0,1.12263,-1724.74,-394.343)">
	<path style="fill:#DF2000;" d="M832,571.5c0,7,5.7,12.6,12.6,12.6h34.7c7,0,12.6-5.7,12.6-12.6V467.3c0-7-5.7-12.6-12.6-12.6h-34.7
		c-7,0-12.6,5.7-12.6,12.6V571.5z"/>
</g>
<g transform="matrix(1.49676,0,0,1,-920.975,-340.595)">
	<path style="fill:#B0ADA7;" d="M948.5,521.5c0.1-13.6-7-24.6-15.8-24.7c-8.8-0.1-16,10.9-16.1,24.5c-0.1,13.6,7,24.6,15.8,24.7
		C941.2,546,948.5,535,948.5,521.5"/>
</g>
<g transform="matrix(1.49676,0,0,1,-920.975,-340.595)">
	<path style="fill:#FFFFFF;" d="M944.3,521.4c0.1-10-5.2-18.1-11.6-18.2c-6.5,0-11.8,8-11.9,18c-0.1,10,5.2,18.1,11.6,18.2
		C939,539.5,944.3,531.4,944.3,521.4"/>
</g>
<g transform="matrix(0.87688,0,0,0.560893,-12.0613,-15.3818)">
	<g>
		<path style="fill:#FFFFFF;" d="M515.1,474.8c0,10.3,8.4,18.7,18.7,18.7h142.7c10.3,0,18.7-8.4,18.7-18.7v-0.6
			c0-10.3-8.4-18.7-18.7-18.7H533.7c-10.3,0-18.7,8.4-18.7,18.7V474.8z"/>
	</g>
</g>
<g transform="matrix(1.33869,0,0,1.49655,-802.625,-537.889)">
	<path style="fill:#BFBFBF;" d="M653.7,436.8h-44.2l30.1-64.7c3-6.6,5.7-12.6,12.6-12.6h351.3l23.6,8.4H677.3L653.7,436.8z"/>
</g>
<g transform="matrix(1.44358,0,0,1,-884.835,-340.595)">
	<path style="fill:#B0ADA7;" d="M1029.5,521.5c0.1-13.6-7-24.6-15.8-24.7c-8.8-0.1-16,10.9-16.1,24.5c-0.1,13.6,7,24.6,15.8,24.7
		C1022.2,546,1029.4,535,1029.5,521.5"/>
</g>
<g transform="matrix(1.44358,0,0,1,-884.835,-340.595)">
	<path style="fill:#FFFFFF;" d="M1025.2,521.4c0.1-10-5.2-18.1-11.6-18.2c-6.5,0-11.8,8-11.9,18c-0.1,10,5.2,18.1,11.6,18.2
		C1019.9,539.5,1025.2,531.4,1025.2,521.4"/>
</g>
<g transform="matrix(1,0,0,1,-41.0059,-88.7856)">
	<path style="fill:#638ABD;" d="M575.7,232.6c0-7.5-6.1-13.6-13.6-13.6c-7.5,0-13.6,6.1-13.6,13.6c0,7.5,6.1,13.6,13.6,13.6
		C569.6,246.2,575.7,240.1,575.7,232.6"/>
</g>
</svg>
